%TF.GenerationSoftware,KiCad,Pcbnew,(6.0.5)*%
%TF.CreationDate,2023-01-10T19:29:17-05:00*%
%TF.ProjectId,Switched-Outlet-Switcher,53776974-6368-4656-942d-4f75746c6574,rev?*%
%TF.SameCoordinates,Original*%
%TF.FileFunction,Legend,Top*%
%TF.FilePolarity,Positive*%
%FSLAX46Y46*%
G04 Gerber Fmt 4.6, Leading zero omitted, Abs format (unit mm)*
G04 Created by KiCad (PCBNEW (6.0.5)) date 2023-01-10 19:29:17*
%MOMM*%
%LPD*%
G01*
G04 APERTURE LIST*
%ADD10C,0.150000*%
%ADD11C,0.120000*%
G04 APERTURE END LIST*
D10*
%TO.C,P2*%
X170372380Y-121838095D02*
X169372380Y-121838095D01*
X169372380Y-121457142D01*
X169420000Y-121361904D01*
X169467619Y-121314285D01*
X169562857Y-121266666D01*
X169705714Y-121266666D01*
X169800952Y-121314285D01*
X169848571Y-121361904D01*
X169896190Y-121457142D01*
X169896190Y-121838095D01*
X169467619Y-120885714D02*
X169420000Y-120838095D01*
X169372380Y-120742857D01*
X169372380Y-120504761D01*
X169420000Y-120409523D01*
X169467619Y-120361904D01*
X169562857Y-120314285D01*
X169658095Y-120314285D01*
X169800952Y-120361904D01*
X170372380Y-120933333D01*
X170372380Y-120314285D01*
%TO.C,P1*%
X175532380Y-101638095D02*
X174532380Y-101638095D01*
X174532380Y-101257142D01*
X174580000Y-101161904D01*
X174627619Y-101114285D01*
X174722857Y-101066666D01*
X174865714Y-101066666D01*
X174960952Y-101114285D01*
X175008571Y-101161904D01*
X175056190Y-101257142D01*
X175056190Y-101638095D01*
X175532380Y-100114285D02*
X175532380Y-100685714D01*
X175532380Y-100400000D02*
X174532380Y-100400000D01*
X174675238Y-100495238D01*
X174770476Y-100590476D01*
X174818095Y-100685714D01*
%TO.C,SW1*%
X154666666Y-93824761D02*
X154809523Y-93872380D01*
X155047619Y-93872380D01*
X155142857Y-93824761D01*
X155190476Y-93777142D01*
X155238095Y-93681904D01*
X155238095Y-93586666D01*
X155190476Y-93491428D01*
X155142857Y-93443809D01*
X155047619Y-93396190D01*
X154857142Y-93348571D01*
X154761904Y-93300952D01*
X154714285Y-93253333D01*
X154666666Y-93158095D01*
X154666666Y-93062857D01*
X154714285Y-92967619D01*
X154761904Y-92920000D01*
X154857142Y-92872380D01*
X155095238Y-92872380D01*
X155238095Y-92920000D01*
X155571428Y-92872380D02*
X155809523Y-93872380D01*
X156000000Y-93158095D01*
X156190476Y-93872380D01*
X156428571Y-92872380D01*
X157333333Y-93872380D02*
X156761904Y-93872380D01*
X157047619Y-93872380D02*
X157047619Y-92872380D01*
X156952380Y-93015238D01*
X156857142Y-93110476D01*
X156761904Y-93158095D01*
%TO.C,U1*%
X146952380Y-112261904D02*
X147761904Y-112261904D01*
X147857142Y-112214285D01*
X147904761Y-112166666D01*
X147952380Y-112071428D01*
X147952380Y-111880952D01*
X147904761Y-111785714D01*
X147857142Y-111738095D01*
X147761904Y-111690476D01*
X146952380Y-111690476D01*
X147952380Y-110690476D02*
X147952380Y-111261904D01*
X147952380Y-110976190D02*
X146952380Y-110976190D01*
X147095238Y-111071428D01*
X147190476Y-111166666D01*
X147238095Y-111261904D01*
X147952380Y-114428571D02*
X147476190Y-114761904D01*
X147952380Y-115000000D02*
X146952380Y-115000000D01*
X146952380Y-114619047D01*
X147000000Y-114523809D01*
X147047619Y-114476190D01*
X147142857Y-114428571D01*
X147285714Y-114428571D01*
X147380952Y-114476190D01*
X147428571Y-114523809D01*
X147476190Y-114619047D01*
X147476190Y-115000000D01*
X146952380Y-114142857D02*
X146952380Y-113571428D01*
X147952380Y-113857142D02*
X146952380Y-113857142D01*
X147952380Y-112714285D02*
X147952380Y-113285714D01*
X147952380Y-113000000D02*
X146952380Y-113000000D01*
X147095238Y-113095238D01*
X147190476Y-113190476D01*
X147238095Y-113285714D01*
X147952380Y-111761904D02*
X147952380Y-112333333D01*
X147952380Y-112047619D02*
X146952380Y-112047619D01*
X147095238Y-112142857D01*
X147190476Y-112238095D01*
X147238095Y-112333333D01*
X147285714Y-110904761D02*
X147952380Y-110904761D01*
X146904761Y-111142857D02*
X147619047Y-111380952D01*
X147619047Y-110761904D01*
X146952380Y-109952380D02*
X146952380Y-110142857D01*
X147000000Y-110238095D01*
X147047619Y-110285714D01*
X147190476Y-110380952D01*
X147380952Y-110428571D01*
X147761904Y-110428571D01*
X147857142Y-110380952D01*
X147904761Y-110333333D01*
X147952380Y-110238095D01*
X147952380Y-110047619D01*
X147904761Y-109952380D01*
X147857142Y-109904761D01*
X147761904Y-109857142D01*
X147523809Y-109857142D01*
X147428571Y-109904761D01*
X147380952Y-109952380D01*
X147333333Y-110047619D01*
X147333333Y-110238095D01*
X147380952Y-110333333D01*
X147428571Y-110380952D01*
X147523809Y-110428571D01*
X147952380Y-108904761D02*
X147952380Y-109476190D01*
X147952380Y-109190476D02*
X146952380Y-109190476D01*
X147095238Y-109285714D01*
X147190476Y-109380952D01*
X147238095Y-109476190D01*
X146952380Y-108000000D02*
X146952380Y-108476190D01*
X147428571Y-108523809D01*
X147380952Y-108476190D01*
X147333333Y-108380952D01*
X147333333Y-108142857D01*
X147380952Y-108047619D01*
X147428571Y-108000000D01*
X147523809Y-107952380D01*
X147761904Y-107952380D01*
X147857142Y-108000000D01*
X147904761Y-108047619D01*
X147952380Y-108142857D01*
X147952380Y-108380952D01*
X147904761Y-108476190D01*
X147857142Y-108523809D01*
D11*
X162130400Y-117977000D02*
X162130400Y-105023000D01*
X162130400Y-105023000D02*
X132869600Y-105023000D01*
X132869600Y-105023000D02*
X132869600Y-117977000D01*
X132869600Y-117977000D02*
X162130400Y-117977000D01*
%TD*%
M02*
